<svg width="160" height="160" viewBox="0 0 160 160" fill="none" xmlns="http://www.w3.org/2000/svg">
<path d="M50.2633 99.4325C48.9881 99.0945 43.5805 91.5657 42.575 89.9676C41.6151 88.4398 40.7418 86.8593 39.9595 85.2333C35.0422 74.9916 34.8345 64.2993 38.6178 53.6363C42.848 41.7334 51.6185 31.9894 63.0122 26.5346C84.9847 16.1342 109.143 26.3041 119.319 47.8141C124.295 58.3595 124.865 70.4523 120.904 81.4191C119.608 85.0108 117.839 88.4139 115.643 91.5376C111.346 97.5579 103.735 105.649 98.7319 111.454L88.5495 123.464C86.3404 126.067 81.8068 133.013 77.9535 131.285C77.4939 131.079 76.6196 130.538 76.3267 130.153C74.2017 127.363 66.3407 119.745 65.2544 116.945C64.4889 116.348 62.7273 114.223 62.0276 113.409L56.3865 106.842C55.482 105.795 50.3878 100.212 50.2633 99.4325Z" fill="white"/>
<path d="M50.2633 99.4325C48.9881 99.0945 43.5805 91.5657 42.575 89.9676C41.6151 88.4398 40.7418 86.8593 39.9595 85.2333C35.0422 74.9916 34.8345 64.2993 38.6178 53.6363C42.848 41.7334 51.6185 31.9894 63.0122 26.5346C84.9847 16.1342 109.143 26.3041 119.319 47.8141C124.295 58.3595 124.865 70.4523 120.904 81.4191C119.608 85.0108 117.839 88.4139 115.643 91.5376C111.346 97.5579 103.735 105.649 98.7319 111.454L88.5495 123.464C86.3404 126.067 81.8068 133.013 77.9535 131.285C77.4939 131.079 76.6196 130.538 76.3267 130.153C74.2017 127.363 66.3407 119.745 65.2544 116.945C64.4889 116.348 62.7273 114.223 62.0276 113.409L56.3865 106.842C55.482 105.795 50.3878 100.212 50.2633 99.4325Z" fill="black"/>
<path d="M50.263 99.4316C49.9405 95.4908 50.1692 88.6574 50.1803 84.4766L50.1955 72.4252C50.1877 61.7172 50.1957 54.8324 57.5702 46.2921C67.4386 34.8634 79.3486 34.9073 93.08 35.3914C97.4003 35.5438 100.995 37.6944 101.362 42.2753C101.512 44.3208 100.852 46.3432 99.5255 47.9074C92.8603 55.6179 70.308 41.5518 65.4532 63.585C69.0725 63.5119 78.9194 63.0758 81.8943 63.9417C82.6395 64.1585 83.473 64.8219 84.0323 65.3535C85.2164 66.479 85.8389 67.914 85.8572 69.5467C85.8747 71.1232 85.4727 72.7023 84.3325 73.8447C79.3826 78.8048 67.8158 71.5833 61.5434 80.4454C60.2863 82.2215 59.5125 84.4017 59.4753 86.5815C59.4196 89.8556 60.955 92.5418 63.1865 94.8109C63.8222 95.4572 64.5023 96.0756 65.2348 96.61C65.2322 103.013 65.0205 110.647 65.254 116.944C64.4886 116.348 62.727 114.222 62.0273 113.408L56.3862 106.841C55.4816 105.794 50.3875 100.211 50.263 99.4316Z" fill="white"/>
<path d="M110.247 58.6078C112.19 58.5445 113.953 59.1107 115.344 60.5076C116.596 61.7643 117.283 63.4757 117.247 65.2489C117.18 68.7672 114.094 70.9258 111.73 73.1935L105.22 79.4946C98.1555 86.3535 91.1526 93.2795 84.09 100.14C78.843 105.237 74.7439 99.7197 71.2361 96.0087C68.0306 92.7282 60.7084 87.4309 65.995 82.36C71.2845 77.2863 75.6753 83.0335 79.2949 86.8033C83.8734 81.8334 90.4907 75.8277 95.4339 71.0046L102.821 63.8275C105.308 61.4232 106.754 59.3243 110.247 58.6078Z" fill="white"/>
</svg>
